<svg width="170" height="47" viewBox="0 0 170 47" fill="none" xmlns="http://www.w3.org/2000/svg">
<path d="M160.581 22.5887L169.629 46.543C166.962 46.162 164.297 45.6851 161.583 45.2554L156.486 32.0195L151.249 44.1628C148.678 43.7331 146.153 43.5898 143.582 43.2561L152.773 22.3037L144.437 0.828613H152.152L156.818 12.8271L161.819 0.828613H169.627L160.581 22.5887ZM138.345 0.828613H131.345V42.3525C133.63 42.4957 136.011 42.5902 138.345 42.8752V0.828613ZM125.297 41.8756C118.916 41.4474 112.535 41.0679 106.011 40.9232V0.828613H113.153V34.162C117.249 34.2565 121.344 34.5887 125.297 34.7792V41.8756ZM98.3907 17.0679V24.21H88.6291V40.4477H81.583V0.828613H101.583V7.97072H88.6307V17.0679H98.3907ZM69.5815 7.97072V40.8287C67.1998 40.8287 64.7723 40.8287 62.4378 40.9232V7.97072H55.0565V0.828613H77.0085V7.97072H69.5815ZM47.343 24.5894C44.2009 24.5894 40.4858 24.5894 37.8191 24.7342V35.3521C42.0096 35.0656 46.2001 34.7334 50.4378 34.5902V41.4474L30.677 43.0199V0.828613H50.4363V7.97072H37.8191V17.5906C40.5818 17.5906 44.8195 17.4473 47.343 17.4473V24.5894ZM7.76954 20.5894V45.5418C5.20039 45.8283 2.91315 46.162 0.485718 46.543V0.828613H7.29564L16.5802 26.7822V0.828613H23.7239V43.5898C21.2004 44.0196 18.6282 44.1628 15.9143 44.5422L7.76954 20.5894Z" fill="#E50914"/>
</svg>
