<svg width="278" height="66" viewBox="0 0 278 66" fill="none" xmlns="http://www.w3.org/2000/svg">
<path fill-rule="evenodd" clip-rule="evenodd" d="M277.15 5C277.15 2.23857 274.911 0 272.15 0H5.00001C2.23859 0 0 2.23858 0 5V60.9017C0 63.6632 2.23858 65.9017 5 65.9017H272.15C274.911 65.9017 277.15 63.6632 277.15 60.9017V5ZM1.24633 5.48571V60.3429C1.24611 60.8232 1.30574 61.2988 1.42178 61.7425C1.53783 62.1862 1.70802 62.5892 1.92258 62.9285C2.13666 63.2685 2.39101 63.5382 2.67103 63.722C2.95106 63.9059 3.25125 64.0004 3.55437 64H273.595C273.975 64.0005 274.349 63.8524 274.684 63.5688C275.018 63.2852 275.304 62.8749 275.514 62.3744C275.768 61.7734 275.904 61.0662 275.903 60.3429V5.48571C275.903 4.51602 275.66 3.58625 275.227 2.90011C274.905 2.38812 274.493 2.03967 274.045 1.899C273.897 1.85216 273.746 1.82856 273.595 1.82857H3.55437C3.09789 1.82798 2.65161 2.04249 2.27226 2.44481C1.95641 2.77857 1.69747 3.23076 1.51849 3.76127C1.33951 4.29178 1.24603 4.88416 1.24633 5.48571Z" fill="#808080" fill-opacity="0.702"/>
</svg>
