<svg width="143" height="39" viewBox="0 0 143 39" fill="none" xmlns="http://www.w3.org/2000/svg">
<path fill-rule="evenodd" clip-rule="evenodd" d="M142.043 5.99999C142.043 2.68628 139.357 0 136.043 0H6C2.68629 0 0 2.68629 0 6V32.4732C0 35.7869 2.68629 38.4732 6 38.4732H136.043C139.357 38.4732 142.043 35.7869 142.043 32.4732V5.99999ZM2.04801 5.48571V32.9143C2.04731 33.6376 2.26181 34.3449 2.66423 34.946C3.06665 35.5468 3.63759 36.015 4.30537 36.2924C4.74899 36.4768 5.22473 36.5717 5.70515 36.5714H136.448C137.171 36.5722 137.879 36.3579 138.48 35.9554C138.979 35.621 139.389 35.1683 139.673 34.6379C139.956 34.1076 140.105 33.5157 140.105 32.9143V5.48571C140.106 5.00528 140.011 4.52957 139.827 4.08571C139.643 3.64186 139.374 3.23849 139.034 2.89911C138.523 2.38709 137.871 2.0391 137.161 1.89911C136.926 1.85226 136.687 1.82855 136.448 1.82857H5.70515C4.98182 1.82782 4.27463 2.04217 3.67361 2.44464C3.2739 2.71089 2.93084 3.05366 2.66423 3.45313C2.26159 4.0544 2.04707 4.76207 2.04801 5.48571Z" fill="#808080" fill-opacity="0.702"/>
</svg>
