<svg width="233" height="64" viewBox="0 0 233 64" fill="none" xmlns="http://www.w3.org/2000/svg">
<path d="M233 59.4286V4.57143C233.001 3.66701 232.722 2.78274 232.199 2.03075C231.677 1.27876 230.934 0.692906 230.064 0.347435C229.487 0.117476 228.869 -0.000601605 228.245 2.30485e-06H4.75509C3.81443 -0.000645664 2.89486 0.267655 2.1132 0.770761C1.46314 1.18847 0.930222 1.75381 0.561634 2.41674C0.193045 3.07968 0.000114194 3.81974 -8.24247e-06 4.57143V59.4286C-0.000310711 60.0291 0.122543 60.6237 0.361616 61.1785C0.60069 61.7332 0.951259 62.2372 1.39321 62.6615C1.83467 63.0859 2.35888 63.4226 2.93572 63.6523C3.51255 63.882 4.13074 64.0001 4.75509 64H228.245C228.869 64.0006 229.488 63.8827 230.065 63.653C230.642 63.4233 231.166 63.0864 231.608 62.6615C232.049 62.2369 232.399 61.7329 232.638 61.1782C232.877 60.6235 233 60.029 233 59.4286Z" fill="#E50914"/>
</svg>
