<svg width="225" height="65" viewBox="0 0 225 65" fill="none" xmlns="http://www.w3.org/2000/svg">
<path d="M0.271303 60.1991V5.34194C0.270792 4.74151 0.388715 4.1467 0.618401 3.59194C0.848087 3.03718 1.18501 2.53324 1.60981 2.1089C2.46735 1.25173 3.63025 0.770384 4.84273 0.77051H219.7C220.3 0.76997 220.895 0.88814 221.449 1.11783C222.004 1.34752 222.508 1.6841 222.932 2.1089C223.573 2.74731 224.008 3.56225 224.184 4.44953C224.242 4.74393 224.271 5.04114 224.271 5.34194V60.1991C224.271 61.4115 223.79 62.5744 222.932 63.4317C222.075 64.289 220.912 64.7705 219.7 64.7705H4.84273C4.24234 64.77 3.6479 64.6521 3.09284 64.4232C2.53764 64.1941 2.03347 63.8569 1.60981 63.4312C1.18516 63.007 0.848416 62.5028 0.618736 61.9482C0.389056 61.3936 0.270963 60.7993 0.271303 60.1991Z" fill="#E50914"/>
</svg>
