<svg width="440" height="67" viewBox="0 0 440 67" fill="none" xmlns="http://www.w3.org/2000/svg">
<path fill-rule="evenodd" clip-rule="evenodd" d="M439.189 0.856445H0.0392456V66.7582H439.189V0.856445ZM2.01408 6.34216V61.1993C2.0136 62.0456 2.30686 62.8657 2.84377 63.5198C3.38068 64.174 4.12793 64.6214 4.95805 64.7859C5.19302 64.8325 5.43076 64.8564 5.67122 64.8564H433.557C434.037 64.8554 434.512 64.7605 434.956 64.5774C435.4 64.3941 435.803 64.1251 436.143 63.7855C436.483 63.4458 436.752 63.042 436.935 62.598C437.119 62.1545 437.214 61.6794 437.214 61.1993V6.34216C437.214 5.74079 437.065 5.14885 436.781 4.6185C436.498 4.08815 436.088 3.63555 435.589 3.30109C434.987 2.89887 434.28 2.68454 433.557 2.68502H5.67122C4.94789 2.68426 4.24071 2.89862 3.63969 3.30109C3.13991 3.63555 2.73018 4.08815 2.44667 4.6185C2.16316 5.14885 2.01457 5.74079 2.01408 6.34216Z" fill="#808080" fill-opacity="0.702"/>
</svg>
