<svg width="88" height="37" viewBox="0 0 88 37" fill="none" xmlns="http://www.w3.org/2000/svg">
<path d="M0.452882 32.4V4.97145C0.452436 4.21965 0.637655 3.47938 0.992056 2.81635C1.34646 2.15333 1.85911 1.58807 2.48447 1.17077C3.23598 0.667761 4.12 0.399488 5.02431 0.400026H82.7386C83.6429 0.399378 84.527 0.66766 85.2784 1.17077C85.7779 1.50397 86.2067 1.93247 86.5403 2.4317C86.8738 2.93092 87.1056 3.49107 87.2223 4.08003C87.2808 4.37443 87.31 4.67157 87.31 4.97145V32.4C87.3108 33.3044 87.0425 34.1885 86.5393 34.9399C86.206 35.4393 85.7776 35.8681 85.2783 36.2016C84.7791 36.5352 84.2189 36.767 83.63 36.8837C83.3365 36.9421 83.0379 36.9715 82.7386 36.9715H5.02431C4.12001 36.9719 3.236 36.7037 2.48447 36.2007C1.98477 35.8675 1.55595 35.4387 1.22275 34.939C0.720991 34.1873 0.453078 33.3038 0.452882 32.4Z" fill="#E50914"/>
</svg>
