<svg width="360" height="121" viewBox="0 0 360 121" fill="none" xmlns="http://www.w3.org/2000/svg">
<path fill-rule="evenodd" clip-rule="evenodd" d="M359.064 14.4777C359.064 6.74568 352.796 0.477661 345.064 0.477661H14.4446C6.71262 0.477661 0.44458 6.74568 0.44458 14.4777V106.578C0.44458 114.31 6.71259 120.578 14.4446 120.578H345.064C352.796 120.578 359.064 114.31 359.064 106.578V14.4777ZM3.28527 15.2525V105.767C3.28464 107.328 3.59223 108.874 4.19041 110.315C4.78713 111.758 5.66268 113.068 6.76687 114.171C7.86997 115.275 9.1802 116.151 10.6224 116.747C12.0642 117.346 13.61 117.653 15.171 117.653H344.314C345.875 117.653 347.421 117.346 348.862 116.747C350.305 116.151 351.615 115.275 352.718 114.171C353.822 113.068 354.698 111.758 355.294 110.315C355.893 108.874 356.2 107.328 356.2 105.767V15.2525C356.2 13.6915 355.893 12.1458 355.294 10.7039C354.698 9.26173 353.822 7.95151 352.718 6.8484C351.615 5.74418 350.305 4.86862 348.862 4.27195C347.421 3.67377 345.875 3.36617 344.314 3.3668H15.171C13.61 3.36617 12.0642 3.67377 10.6224 4.27195C9.18018 4.86864 7.86995 5.7442 6.76687 6.8484C5.66266 7.95149 4.7871 9.26172 4.19041 10.7039C3.59223 12.1458 3.28464 13.6915 3.28527 15.2525Z" fill="#808080" fill-opacity="0.702"/>
</svg>
