<svg width="143" height="40" viewBox="0 0 143 40" fill="none" xmlns="http://www.w3.org/2000/svg">
<path fill-rule="evenodd" clip-rule="evenodd" d="M142.453 5.33947C142.453 2.57805 140.214 0.339478 137.453 0.339478H5.6289C2.86747 0.339478 0.628906 2.57805 0.628906 5.33948V34.0321C0.628906 36.7935 2.86748 39.0321 5.62891 39.0321H137.453C140.214 39.0321 142.453 36.7935 142.453 34.0321V5.33947ZM2.49408 5.97148V33.4001C2.49372 33.8804 2.5881 34.3561 2.77176 34.8C2.95542 35.2439 3.22473 35.6472 3.5644 35.9868C3.90407 36.3265 4.30736 36.5959 4.75123 36.7795C5.1951 36.9632 5.67086 37.0576 6.15123 37.0572H136.894C137.374 37.0576 137.85 36.9631 138.294 36.7793C138.737 36.5954 139.14 36.3257 139.48 35.9857C139.82 35.6464 140.089 35.2434 140.273 34.7997C140.457 34.356 140.552 33.8803 140.551 33.4001V5.97148C140.552 5.24816 140.337 4.541 139.935 3.93993C139.669 3.5402 139.326 3.19704 138.926 2.93016C138.527 2.66327 138.079 2.47792 137.607 2.38473C137.372 2.33791 137.134 2.31433 136.894 2.31433H6.15123C5.67095 2.31409 5.19536 2.40861 4.75167 2.59248C4.30799 2.77636 3.90493 3.04597 3.56563 3.38588C3.05336 3.89676 2.70487 4.54861 2.56451 5.25834C2.51774 5.49317 2.49413 5.73203 2.49408 5.97148Z" fill="#808080" fill-opacity="0.702"/>
</svg>
