<svg width="19" height="19" viewBox="0 0 19 19" fill="none" xmlns="http://www.w3.org/2000/svg">
<path fill-rule="evenodd" clip-rule="evenodd" d="M9.43692 17.114C9.69978 17.114 10.4004 16.8557 11.1364 15.3837C11.4865 14.6606 11.7504 13.8988 11.9226 13.114H6.95121C7.15121 13.9849 7.42207 14.7529 7.7375 15.3837C8.4735 16.8557 9.17407 17.114 9.43692 17.114ZM6.66892 11.3997C6.54907 10.26 6.54907 9.11089 6.66892 7.97117H12.2049C12.3246 9.1109 12.3246 10.26 12.2049 11.3997H6.66892ZM13.6758 13.114C13.4164 14.3963 13.0164 15.5335 12.5124 16.4489C14.023 15.7597 15.2606 14.5861 16.0289 13.114H13.6758ZM16.6666 11.3997H13.9284C14.0364 10.2594 14.0364 9.11148 13.9284 7.97117H16.6666C16.9331 9.0985 16.9331 10.2724 16.6666 11.3997ZM4.9455 11.3997H2.20721C1.94062 10.2724 1.94062 9.09849 2.20721 7.97117H4.9455C4.83744 9.11148 4.83744 10.2594 4.9455 11.3997ZM2.84492 13.114H5.19807C5.4575 14.3963 5.8575 15.5335 6.3615 16.4489C4.8508 15.7597 3.61327 14.5861 2.84492 13.114ZM6.95121 6.25689H11.9226C11.7504 5.47212 11.4865 4.71032 11.1364 3.98717C10.4004 2.51517 9.69978 2.25689 9.43692 2.25689C9.17407 2.25689 8.4735 2.51517 7.7375 3.98717C7.38736 4.71032 7.12346 5.47212 6.95121 6.25689ZM13.6758 6.25689H16.0289C15.2606 4.78485 14.023 3.61127 12.5124 2.92203C13.0152 3.83746 13.4164 4.9746 13.6758 6.25689ZM6.3615 2.92203C5.85864 3.83746 5.4575 4.9746 5.19692 6.25689H2.84492C3.61356 4.78467 4.85038 3.61106 6.3615 2.92203ZM9.43692 0.542603C11.8618 0.542603 14.1873 1.50587 15.9019 3.22048C17.6165 4.9351 18.5798 7.26062 18.5798 9.68546C18.5798 12.1103 17.6165 14.4358 15.9019 16.1504C14.1873 17.8651 11.8618 18.8283 9.43692 18.8283C7.01209 18.8283 4.68657 17.8651 2.97195 16.1504C1.25733 14.4358 0.294067 12.1103 0.294067 9.68546C0.294067 7.26062 1.25733 4.9351 2.97195 3.22048C4.68657 1.50587 7.01209 0.542603 9.43692 0.542603Z" fill="white"/>
</svg>
