<svg width="20" height="19" viewBox="0 0 20 19" fill="none" xmlns="http://www.w3.org/2000/svg">
<path fill-rule="evenodd" clip-rule="evenodd" d="M9.99082 16.6286C10.2537 16.6286 10.9542 16.3703 11.6902 14.8983C12.0404 14.1751 12.3043 13.4133 12.4765 12.6286H7.5051C7.7051 13.4994 7.97596 14.2674 8.29139 14.8983C9.02739 16.3703 9.72796 16.6286 9.99082 16.6286ZM7.22282 10.9143C7.10296 9.77456 7.10296 8.62542 7.22282 7.4857H12.7588C12.8785 8.62542 12.8785 9.77455 12.7588 10.9143H7.22282ZM14.2297 12.6286C13.9702 13.9108 13.5702 15.048 13.0662 15.9634C14.5769 15.2742 15.8145 14.1006 16.5828 12.6286H14.2297ZM17.2205 10.9143H14.4822C14.5903 9.77397 14.5903 8.626 14.4822 7.4857H17.2205C17.487 8.61302 17.487 9.78695 17.2205 10.9143ZM5.49939 10.9143H2.7611C2.49452 9.78696 2.49452 8.61301 2.7611 7.4857H5.49939C5.39133 8.626 5.39133 9.77397 5.49939 10.9143ZM3.39882 12.6286H5.75196C6.01139 13.9108 6.41139 15.048 6.91539 15.9634C5.4047 15.2742 4.16716 14.1006 3.39882 12.6286ZM7.5051 5.77141H12.4765C12.3043 4.98665 12.0404 4.22485 11.6902 3.5017C10.9542 2.0297 10.2537 1.77141 9.99082 1.77141C9.72796 1.77141 9.02739 2.0297 8.29139 3.5017C7.94126 4.22485 7.67735 4.98665 7.5051 5.77141ZM14.2297 5.77141H16.5828C15.8145 4.29938 14.5769 3.12579 13.0662 2.43656C13.5691 3.35199 13.9702 4.48913 14.2297 5.77141ZM6.91539 2.43656C6.41253 3.35199 6.01139 4.48913 5.75082 5.77141H3.39882C4.16745 4.29919 5.40427 3.12558 6.91539 2.43656ZM9.99082 0.0571289C12.4157 0.0571289 14.7412 1.02039 16.4558 2.73501C18.1704 4.44963 19.1337 6.77515 19.1337 9.19999C19.1337 11.6248 18.1704 13.9503 16.4558 15.665C14.7412 17.3796 12.4157 18.3428 9.99082 18.3428C7.56598 18.3428 5.24046 17.3796 3.52584 15.665C1.81122 13.9503 0.847961 11.6248 0.847961 9.19999C0.847961 6.77515 1.81122 4.44963 3.52584 2.73501C5.24046 1.02039 7.56598 0.0571289 9.99082 0.0571289Z" fill="white"/>
</svg>
